<svg width="402" height="121" viewBox="0 0 402 121" fill="none" xmlns="http://www.w3.org/2000/svg">
    <path d="m206.814 6.056.663-2.926-.663 2.926zm-25.821 106.969-1.147 2.772 1.147-2.772zM402 20.378l-34.636-.57 16.825 30.281L402 20.378zM.686 115.722c2.814 1.37 6.543 2.072 10.785 2.341 4.296.273 9.367.114 15.022-.404 11.314-1.035 25.21-3.531 40.382-7.093 30.35-7.125 66.079-18.585 96.947-31.457 15.435-6.437 29.705-13.247 41.502-20.07 11.739-6.791 21.256-13.722 26.979-20.464 2.867-3.378 4.94-6.891 5.73-10.481.814-3.7.225-7.328-1.956-10.637-2.118-3.212-5.607-5.935-10.279-8.257-4.692-2.333-10.769-4.357-18.321-6.07l-1.326 5.851c7.273 1.65 12.855 3.543 16.976 5.591 4.141 2.059 6.618 4.181 7.941 6.188 1.258 1.909 1.584 3.872 1.106 6.044-.503 2.282-1.928 4.923-4.446 7.888-5.047 5.946-13.845 12.464-25.409 19.152-11.505 6.655-25.525 13.354-40.806 19.727-30.565 12.746-65.98 24.104-96.01 31.154-15.019 3.526-28.621 5.958-39.557 6.959-5.47.501-10.21.638-14.095.391-3.937-.249-6.756-.88-8.537-1.747l-2.628 5.394zM207.477 3.13c-25.549-5.794-43.464-3.22-54.97 5.068-11.58 8.342-15.882 21.892-15.493 36.178.389 14.28 5.442 29.725 13.113 42.727 7.644 12.958 18.132 23.895 29.719 28.694l2.295-5.544c-9.94-4.117-19.569-13.862-26.847-26.199-7.252-12.293-11.926-26.756-12.282-39.842-.356-13.08 3.578-24.357 13.002-31.145 9.5-6.843 25.358-9.705 50.137-4.086l1.326-5.851zm-27.631 112.667c13.369 5.537 28.838 5.365 45.221 1.671 16.396-3.696 33.971-10.977 51.751-19.986 35.459-17.964 72.554-43.255 103.111-61.41l-3.064-5.158C345.798 49.37 309.359 74.27 274.107 92.13c-17.576 8.904-34.651 15.944-50.359 19.485-15.72 3.544-29.807 3.525-41.607-1.362l-2.295 5.544z" fill="#8CC63F"/>
</svg>
